<?xml version="1.0" standalone="no"?>
<!DOCTYPE svg PUBLIC "-//W3C//DTD SVG 20010904//EN"
 "http://www.w3.org/TR/2001/REC-SVG-20010904/DTD/svg10.dtd">
<svg version="1.0" xmlns="http://www.w3.org/2000/svg"
 width="36.000000pt" height="36.000000pt" viewBox="0 0 512.000000 512.000000"
 preserveAspectRatio="xMidYMid meet">

<g transform="translate(0.000000,512.000000) scale(0.100000,-0.100000)"
fill="#ffffff" stroke="none">
<path d="M4657 4698 c-8 -13 -42 -70 -76 -128 -202 -343 -421 -555 -721 -699
-139 -67 -386 -149 -401 -134 -8 8 2 35 39 100 91 159 154 337 186 522 20 118
20 131 0 131 -9 0 -57 -39 -107 -86 -158 -149 -385 -285 -582 -349 -214 -69
-277 -76 -820 -85 -532 -8 -553 -11 -783 -85 -642 -210 -1124 -804 -1202
-1485 -16 -129 -8 -423 14 -538 107 -575 432 -1021 925 -1268 354 -177 742
-228 1246 -163 496 63 912 242 1275 547 107 91 240 222 224 222 -6 0 -49 -23
-95 -51 -454 -275 -981 -428 -1534 -446 -374 -12 -639 34 -904 158 -556 261
-898 847 -842 1445 35 364 182 678 436 929 204 201 447 332 736 397 139 31
446 33 579 4 494 -107 886 -427 1077 -879 90 -213 142 -538 114 -717 -52 -333
-286 -546 -577 -527 -148 10 -269 67 -358 168 l-47 54 -52 -50 c-232 -224
-569 -267 -854 -110 -100 56 -227 187 -281 292 -58 113 -83 213 -83 338 0 203
67 362 216 511 76 76 105 97 185 136 149 73 197 80 536 76 278 -3 291 -4 331
-26 66 -35 110 -79 140 -140 l28 -57 5 -340 5 -340 26 -55 c47 -100 105 -140
211 -148 87 -6 144 15 193 70 93 102 115 266 69 509 -65 343 -314 673 -629
832 -360 181 -807 159 -1153 -55 -103 -64 -246 -196 -321 -298 -223 -300 -292
-708 -177 -1046 140 -411 519 -726 976 -811 130 -24 519 -24 705 1 304 40 588
126 870 266 288 142 506 297 734 523 408 404 669 894 768 1447 25 134 27 167
27 435 0 234 -3 309 -17 390 -36 205 -95 392 -172 546 -48 95 -64 107 -88 67z"/>
<path d="M1825 2633 c-152 -33 -277 -144 -325 -289 -33 -98 -26 -224 17 -316
144 -306 571 -338 753 -56 63 97 71 148 68 423 l-3 240 -245 1 c-135 1 -254 0
-265 -3z"/>
</g>
</svg>
